<svg xmlns="http://www.w3.org/2000/svg" viewBox="0 0 1000 1400"><ellipse cx="500" cy="145" rx="92" ry="112" fill="#d8c7b4"/><rect x="455" y="240" width="90" height="70" rx="30" fill="#d8c7b4"/><path d="M350 300 Q500 245 650 300 L700 740 Q620 825 500 825 Q380 825 300 740Z" fill="#d8c7b4"/><path d="M355 340 L270 780 Q250 815 220 800 Q190 785 205 745 L300 330Z" fill="#d8c7b4"/><path d="M645 340 L730 780 Q750 815 780 800 Q810 785 795 745 L700 330Z" fill="#d8c7b4"/><path d="M390 800 L485 800 L470 1300 L350 1300Z" fill="#d8c7b4"/><path d="M515 800 L610 800 L650 1300 L530 1300Z" fill="#d8c7b4"/></svg>